PathFileType	4	(X/Y/Z)	/Users/whiskymisky/masters/Sports2D_results/trial_4_Sports2D/trial_4_Sports2D_px_person00.trc
DataRate	CameraRate	NumFrames	NumMarkers	Units	OrigDataRate	OrigDataStartFrame	OrigNumFrames
50	50	12	22	m	50	411	1098
Frame#	Time	Hip			RHip			RKnee			RAnkle			RBigToe			RSmallToe			RHeel			LHip			LKnee			LAnkle			LBigToe			LSmallToe			LHeel			Neck			Head			Nose			RShoulder			RElbow			RWrist			LShoulder			LElbow			LWrist		
		X1	Y1	Z1	X2	Y2	Z2	X3	Y3	Z3	X4	Y4	Z4	X5	Y5	Z5	X6	Y6	Z6	X7	Y7	Z7	X8	Y8	Z8	X9	Y9	Z9	X10	Y10	Z10	X11	Y11	Z11	X12	Y12	Z12	X13	Y13	Z13	X14	Y14	Z14	X15	Y15	Z15	X16	Y16	Z16	X17	Y17	Z17	X18	Y18	Z18	X19	Y19	Z19	X20	Y20	Z20	X21	Y21	Z21	X22	Y22	Z22
411	8.22	950.4131715562047	605.640143400705	0.0	917.4319446504217	618.4645252551194	0.0	886.0315049614208	748.850381997757	0.0	865.8217217002245	859.4963535194241	0.0	868.8402395933083	895.2681951743428	0.0	846.0227520619136	891.5024178811926	0.0	870.4430326338536	872.453170174552	0.0	983.4331441040293	619.8855021322186	0.0	1000.4189809245438	747.0653975398427	0.0	1017.2847690335942	849.8303615656764	0.0	1031.4080824204063	881.8569138108032	0.0	1044.6547943126288	876.6563489063042	0.0	1009.0359662562698	861.4393401490858	0.0	954.6379774604362	429.1666409802615	0.0	956.2689760720297	344.2538495922956	0.0	954.5794736468008	393.95429111284193	0.0	898.0223285563748	445.88916255318645	0.0	820.7039615488708	443.35329451036284	0.0	792.2727206416098	372.4799970629179	0.0	1009.9895515987315	446.3477854016078	0.0	1080.0767931448925	449.42243333683655	0.0	1118.7903181848494	386.97273648312944	0.0
412	8.24	950.5731203513715	605.7068208787946	0.0	917.4117644185972	618.4989615689767	0.0	886.0453315904114	748.7876423776348	0.0	865.8302739161563	859.494366229572	0.0	868.8699894220969	895.2449848828759	0.0	846.0260815847878	891.5864923773172	0.0	870.4498598987576	872.6332695757288	0.0	983.4080008352228	620.101575010724	0.0	1000.4826105783526	746.995713886223	0.0	1017.3879788262756	849.7727469406468	0.0	1031.5810986681404	881.9640691724369	0.0	1044.8053298154186	876.7119475605817	0.0	1008.9779539779015	861.5426870002926	0.0	954.6195748688774	429.0674169443354	0.0	956.360281118936	344.3866863730945	0.0	955.0277114869049	393.6919208169546	0.0	897.8841723402579	445.93352894678725	0.0	820.7496464935201	443.19769354140095	0.0	792.0177667198457	372.3957465466898	0.0	1010.0029981033609	446.2327719949474	0.0	1079.6738954802904	449.23853291023244	0.0	1118.7042753349165	387.8474785333916	0.0
413	8.26	950.7399121213141	605.9229932166868	0.0	917.3672497078999	618.7048890679362	0.0	886.1438527368805	748.881703210898	0.0	865.7500293998826	859.6756796421786	0.0	868.8188744110901	895.3553945492541	0.0	845.997579142576	891.7825462583208	0.0	870.4118397643606	872.9620154630585	0.0	983.3275295015278	620.4447020242801	0.0	1000.4977599553736	747.0901925881125	0.0	1017.5125380377698	849.813390295391	0.0	1031.7591493211382	882.2337004180168	0.0	1044.9656330754406	876.7061561413985	0.0	1009.0381722738049	861.7051995776117	0.0	954.5670511083515	428.8836473162529	0.0	956.3342265362692	344.46623373525995	0.0	955.3718659729207	393.5147077754224	0.0	897.8277602290717	446.02870338921156	0.0	820.737131248108	443.11229530615174	0.0	791.8274734901406	372.1783543515591	0.0	1010.0744796992785	446.04554300818035	0.0	1079.6208976002401	448.8941634948426	0.0	1118.5863227346924	388.19438893415906	0.0
414	8.28	950.830099712712	606.1561589360184	0.0	917.2887272804976	618.9690419851279	0.0	886.2307190723325	749.0260141927707	0.0	865.6576207624836	859.7883348333157	0.0	868.7469355409717	895.422606726715	0.0	846.0380687181578	891.8988625276083	0.0	870.2706867174722	873.1365591078386	0.0	983.2415589136629	620.7793170231407	0.0	1000.4814031973764	747.2319182888505	0.0	1017.633879796632	849.8701145613477	0.0	1031.9758144112322	882.5172232653761	0.0	1045.1241860726868	876.572370011686	0.0	1009.1830748494147	861.8066256412151	0.0	954.5000931728968	428.71747468467595	0.0	956.2077723263155	344.4992235248382	0.0	955.4854636657562	393.55359676431976	0.0	897.7766685517977	446.12251149954625	0.0	820.6157238208378	443.0896430967829	0.0	791.7120590225843	371.9471174536262	0.0	1010.1531496393185	445.888691512648	0.0	1079.7968968721505	448.6173002201522	0.0	1118.5768861554939	388.2737896610777	0.0
415	8.3	950.8372077263094	606.2620152496786	0.0	917.2060662210599	619.0836500139275	0.0	886.2368566258199	749.0382669759523	0.0	865.6387646329107	859.6179116086562	0.0	868.713724904041	895.3325717734017	0.0	846.2172315733135	891.816132050168	0.0	870.093838696483	873.0002443956952	0.0	983.1924192422905	620.9047266288485	0.0	1000.5366649398626	747.232060229379	0.0	1017.6797165063797	849.9246751617898	0.0	1032.2155955526146	882.6461037561336	0.0	1045.2299212612095	876.3195277753806	0.0	1009.3474543266832	861.8295328399937	0.0	954.4436502320904	428.59826833298314	0.0	956.0257071087557	344.55507013855714	0.0	955.3437629917037	393.8003450298885	0.0	897.620771086577	446.1517278257351	0.0	820.3743293338554	443.1295915136956	0.0	791.5925933406196	371.8647179124906	0.0	1010.2152153451692	445.84095865984256	0.0	1079.93277701041	448.60004369980504	0.0	1118.7508466763243	388.5765191849843	0.0
416	8.32	950.8479559898927	606.242784891849	0.0	917.196875596818	619.0354359958436	0.0	886.2422263157757	748.9486446479059	0.0	865.6497836667471	859.3999249333135	0.0	868.7001332448575	895.2285556030538	0.0	846.3618875334557	891.7020334883503	0.0	870.023569384881	872.7886915785424	0.0	983.1922594582345	620.7967774197313	0.0	1000.7246042594264	747.139298503597	0.0	1017.6774981788373	850.0676476167664	0.0	1032.3624324543987	882.644016123591	0.0	1045.2204109821962	876.0733055913173	0.0	1009.5651599805803	861.8553607463858	0.0	954.420134129085	428.5145585675181	0.0	955.8529401090827	344.619768460378	0.0	955.0474629741736	394.0411072758464	0.0	897.4278664606562	446.1572548271582	0.0	820.090675464274	443.3046724715003	0.0	791.3493984218994	371.9544428104902	0.0	1010.2312829256914	445.83801475976065	0.0	1079.9142269375106	448.682757419167	0.0	1118.9991123547086	388.78115253753316	0.0
417	8.34	950.9087198219635	606.1876821906234	0.0	917.2681986518525	618.9935162037667	0.0	886.3233569038698	748.8790902955373	0.0	865.6272442973174	859.4175699104242	0.0	868.6603143603521	895.197905360219	0.0	846.3140290268587	891.6480127937573	0.0	870.1535557934324	872.7024543528471	0.0	983.2261202990777	620.6149475270763	0.0	1000.9484846086425	747.0989415252525	0.0	1017.7391444468587	850.253008952638	0.0	1032.3474597259356	882.6463761489289	0.0	1045.138837089263	875.9683139498708	0.0	1009.9018711803535	861.8806416489598	0.0	954.3951048697556	428.52350140523527	0.0	955.7415707210776	344.6568055710716	0.0	954.7356603071122	394.08405653748054	0.0	897.3024574597464	446.22684189285144	0.0	819.882920253232	443.61020983393416	0.0	790.9389215128768	372.16412681505255	0.0	1010.171698043656	445.76582610682607	0.0	1079.7478809563677	448.6772894437404	0.0	1119.255204434781	388.5111992846545	0.0
418	8.36	950.9826968260002	606.1031207875404	0.0	917.3531761675728	619.0054409257882	0.0	886.4125166447867	748.7698087618534	0.0	865.6300258406905	859.5244638994019	0.0	868.6067899182564	895.0850511789581	0.0	846.2159439706115	891.4473946642684	0.0	870.4870235691176	872.5750022713684	0.0	983.2827773817078	620.4421459991955	0.0	1001.0362573951197	747.0571628989178	0.0	1017.8821778991329	850.256689354319	0.0	1032.2192749551573	882.6553301338254	0.0	1045.0728809285292	875.9820692456437	0.0	1010.2472274444858	861.8037944370091	0.0	954.3010652863518	428.6607637736555	0.0	955.6945847345868	344.720788463512	0.0	954.4787251545903	394.0005762046389	0.0	897.2060888330866	446.35165470239804	0.0	819.8190498115069	443.93517533389024	0.0	790.4807814200908	372.5537783805995	0.0	1010.0347440986093	445.62205523846035	0.0	1079.462510918017	448.7307235146068	0.0	1119.5859183866385	388.2594832620736	0.0
419	8.38	951.0478234378761	605.9511140813602	0.0	917.431640565788	618.9748244359066	0.0	886.4143452526422	748.527668955632	0.0	865.7426511927835	859.4686727326333	0.0	868.5878136860881	894.8534135360454	0.0	846.2582252557066	891.0185628874615	0.0	870.9304904588494	872.2524557090109	0.0	983.3573539956403	620.2475146477315	0.0	1000.9322859902417	746.9183036720297	0.0	1017.9951171116425	849.9768692957022	0.0	1032.0426117545117	882.5649045180244	0.0	1045.0236364784894	875.9900558945222	0.0	1010.3662620366194	861.594276503047	0.0	954.1316906478812	428.81822558902184	0.0	955.6786068760825	344.85309837590984	0.0	954.2942291947843	393.98406187595566	0.0	897.0795541722935	446.4394879986778	0.0	819.8973499362871	444.2471206664188	0.0	790.1419676905872	373.2072943728523	0.0	1009.8463185936586	445.4815048570625	0.0	1079.1794304285522	449.01328626030585	0.0	1119.9696403319028	388.4641468783836	0.0
420	8.4	951.1348581571033	605.8170793808366	0.0	917.5407208776866	618.9327598199376	0.0	886.3491707716627	748.3326288877972	0.0	865.9093128210241	859.3747464658321	0.0	868.6129097922474	894.8019497363248	0.0	846.3566644320497	890.701975593836	0.0	871.2808453940978	871.963853521227	0.0	983.4336257389996	620.0756314549193	0.0	1000.760984621112	746.8449528377163	0.0	1017.99183922219	849.5771773960493	0.0	1031.8401237045314	882.40465401076	0.0	1044.9651565967067	875.9862921245258	0.0	1010.1964352040587	861.3396933400146	0.0	953.9528032486187	428.84912770207404	0.0	955.6827711838216	344.9471788278842	0.0	954.1753614334357	394.06469745942707	0.0	896.9878361917072	446.4341364452555	0.0	820.0431145008425	444.6232028969716	0.0	789.9196058211569	374.0043280836503	0.0	1009.6583100854673	445.3731448105545	0.0	1079.0771678393035	449.3305406223411	0.0	1120.2180034210528	388.4960354761965	0.0
421	8.42	951.2619721507987	605.8317640593575	0.0	917.6908117148491	619.0079552529396	0.0	886.3101714413679	748.4475013934698	0.0	865.9853748724771	859.4626774418575	0.0	868.6434280126631	895.1396408940141	0.0	846.3503231991789	890.8211411256808	0.0	871.3414505907325	871.9555721607088	0.0	983.5162611166871	620.0167940554938	0.0	1000.6755041130159	747.0503445444131	0.0	1017.894565577822	849.2610515217193	0.0	1031.6607325115158	882.3600528504618	0.0	1044.9575997053003	876.0904670361305	0.0	1009.9207645591532	861.1332529429269	0.0	953.8105023643571	428.74356924944516	0.0	955.7232174696017	344.87534916149406	0.0	954.0584920896224	394.1342381709539	0.0	896.9914536579045	446.34542870983563	0.0	820.1308776002508	445.04795146040755	0.0	789.6684583813827	374.660010471221	0.0	1009.5474219923595	445.2911669994524	0.0	1079.1867767551935	449.4281303610582	0.0	1120.1410527354665	387.6584742311897	0.0
422	8.44	951.4017339011999	605.9491636544565	0.0	917.8657748214463	619.1532622094211	0.0	886.3706030662697	748.801493483071	0.0	865.9280936535471	859.5858307451703	0.0	868.6336515855829	895.6473471898689	0.0	846.2879178717194	891.2283790584656	0.0	871.1068195416519	872.0830005456532	0.0	983.6470167443417	620.0493993846393	0.0	1000.6963839458369	747.4456403922479	0.0	1017.753814546459	849.0838616643344	0.0	1031.5754101857842	882.5380804980791	0.0	1045.0691054899535	876.3347614383816	0.0	1009.7285826722465	860.9989553031428	0.0	953.689858634634	428.6044591885753	0.0	955.795364255605	344.6667469883171	0.0	953.8989734612609	394.1261156939681	0.0	897.0160798839057	446.2135069401061	0.0	820.0743070670258	445.3580010270365	0.0	789.3319985090641	374.9686060601485	0.0	1009.5656890982142	445.2445500467878	0.0	1079.3539570022301	449.4059030354081	0.0	1119.670250218044	386.3578926425305	0.0
